<svg width="32" height="32" viewBox="0 0 32 32" fill="none" xmlns="http://www.w3.org/2000/svg">
<g clip-path="url(#clip0_1_1225)">
<path d="M25.4281 23.9549L17.4731 16L25.4281 8.04503C25.8349 7.63822 25.8349 6.9787 25.4281 6.57189C25.0213 6.16508 24.3618 6.16508 23.955 6.57189L16 14.5268L8.04505 6.57189C7.63824 6.16508 6.97872 6.16508 6.57191 6.57189C6.1651 6.9787 6.1651 7.63822 6.57191 8.04503L14.5269 16L6.57191 23.9549C6.1651 24.3617 6.1651 25.0213 6.57191 25.4281C6.97872 25.8349 7.63824 25.8349 8.04505 25.4281L16 17.4731L23.955 25.4281C24.3618 25.8349 25.0213 25.8349 25.4281 25.4281C25.8349 25.0213 25.8349 24.3617 25.4281 23.9549Z" fill="white"/>
</g>
<defs>
<clipPath id="clip0_1_1225">
<rect width="32" height="32" fill="white"/>
</clipPath>
</defs>
</svg>
