<svg width="12" height="12" viewBox="0 0 12 12" fill="none" xmlns="http://www.w3.org/2000/svg">
<g clip-path="url(#clip0_1_1081)">
<path d="M6 1.7285C5.793 1.7285 5.625 1.5605 5.625 1.3535V0.375C5.625 0.168 5.793 0 6 0C6.207 0 6.375 0.168 6.375 0.375V1.3535C6.375 1.5605 6.207 1.7285 6 1.7285Z" fill="white"/>
<path d="M9.28576 3.08959C9.18976 3.08959 9.09376 3.05309 9.02076 2.97959C8.87426 2.83309 8.87426 2.59559 9.02076 2.44909L9.71275 1.75709C9.85925 1.61059 10.0968 1.61059 10.2432 1.75709C10.3897 1.90359 10.3897 2.14109 10.2432 2.28759L9.55126 2.97959C9.47776 3.05259 9.38176 3.08959 9.28576 3.08959V3.08959Z" fill="white"/>
<path d="M11.6252 6.375H10.6467C10.4397 6.375 10.2717 6.207 10.2717 6C10.2717 5.793 10.4397 5.625 10.6467 5.625H11.6252C11.8322 5.625 12.0002 5.793 12.0002 6C12.0002 6.207 11.8322 6.375 11.6252 6.375Z" fill="white"/>
<path d="M9.97775 10.3523C9.88175 10.3523 9.78575 10.3158 9.71275 10.2423L9.02076 9.55028C8.87426 9.40378 8.87426 9.16629 9.02076 9.01979C9.16726 8.87329 9.40476 8.87329 9.55126 9.01979L10.2432 9.71178C10.3897 9.85828 10.3897 10.0958 10.2432 10.2423C10.1698 10.3158 10.0738 10.3523 9.97775 10.3523Z" fill="white"/>
<path d="M2.02233 10.3523C1.92633 10.3523 1.83034 10.3158 1.75734 10.2423C1.61084 10.0958 1.61084 9.85828 1.75734 9.71178L2.44933 9.01979C2.59583 8.87329 2.83333 8.87329 2.97983 9.01979C3.12633 9.16629 3.12633 9.40378 2.97983 9.55028L2.28783 10.2423C2.21433 10.3158 2.11833 10.3523 2.02233 10.3523V10.3523Z" fill="white"/>
<path d="M1.3535 6.375H0.375C0.168 6.375 0 6.207 0 6C0 5.793 0.168 5.625 0.375 5.625H1.3535C1.5605 5.625 1.7285 5.793 1.7285 6C1.7285 6.207 1.5605 6.375 1.3535 6.375Z" fill="white"/>
<path d="M2.71433 3.08959C2.61833 3.08959 2.52233 3.05309 2.44933 2.97959L1.75734 2.28759C1.61084 2.14109 1.61084 1.90359 1.75734 1.75709C1.90383 1.61059 2.14133 1.61059 2.28783 1.75709L2.97983 2.44909C3.12633 2.59559 3.12633 2.83309 2.97983 2.97959C2.90583 3.05259 2.81033 3.08959 2.71433 3.08959V3.08959Z" fill="white"/>
<path d="M7.5 10.5V11.125C7.5 11.605 7.105 12 6.625 12H5.375C4.955 12 4.5 11.68 4.5 10.98V10.5H7.5Z" fill="white"/>
<path d="M8.20515 3.28005C7.38515 2.61505 6.30515 2.35505 5.25015 2.58005C3.92515 2.85505 2.85015 3.93505 2.57515 5.26005C2.29515 6.62005 2.80515 7.97005 3.89515 8.79505C4.19015 9.01505 4.39515 9.35505 4.46515 9.75005V9.75505C4.47515 9.75005 4.49015 9.75005 4.50015 9.75005H7.50015C7.51015 9.75005 7.51515 9.75005 7.52515 9.75505V9.75005C7.59515 9.37005 7.82015 9.02005 8.16515 8.75005C9.01015 8.08005 9.50015 7.08005 9.50015 6.00005C9.50015 4.94005 9.03015 3.95005 8.20515 3.28005Z" fill="white"/>
<path d="M4.46484 9.75H4.49984C4.48984 9.75 4.47484 9.75 4.46484 9.75499V9.75Z" fill="white"/>
<path d="M7.52499 9.75V9.75499C7.51499 9.75 7.51 9.75 7.5 9.75H7.52499Z" fill="white"/>
</g>
<defs>
<clipPath id="clip0_1_1081">
<rect width="12" height="12" fill="white"/>
</clipPath>
</defs>
</svg>
