<svg width="12" height="12" viewBox="0 0 12 12" fill="none" xmlns="http://www.w3.org/2000/svg">
<path d="M2.41451 8.80088C2.99897 9.13838 3.67844 9.36469 4.40287 9.43027C3.1511 8.73743 2.47458 7.77553 2.15613 7.22398C1.80593 6.61746 1.56923 5.9603 1.45153 5.2688C1.10182 5.2838 0.753678 5.33602 0.414959 5.42604C0.260271 5.46298 0.145264 5.60222 0.145264 5.76821C0.145264 5.79896 0.149295 5.82956 0.157264 5.85926C0.516326 7.19853 1.39303 8.21121 2.41451 8.80088Z" fill="white"/>
<path d="M7.59717 9.43024C8.32157 9.36464 9.00107 9.13835 9.58553 8.80085C10.607 8.21119 11.4837 7.1985 11.8428 5.85926C11.8508 5.82956 11.8548 5.79896 11.8548 5.76821C11.8548 5.60222 11.7398 5.46298 11.5851 5.42604C11.2464 5.33602 10.8982 5.28378 10.5485 5.2688C10.4308 5.9603 10.1941 6.61746 9.84393 7.22398C9.52547 7.77553 8.84974 8.73696 7.59717 9.43024Z" fill="white"/>
<path d="M4.3899 8.60015C4.03466 8.02633 3.48296 6.92484 3.48296 5.41493C3.48296 4.64979 3.62459 3.90553 3.90355 3.1994C3.51931 2.98024 3.10732 2.8098 2.67839 2.69491C2.4908 2.64471 2.29812 2.75594 2.24785 2.94347C1.86413 4.37498 2.13476 5.78088 2.76497 6.87232C3.14759 7.53501 3.69706 8.14054 4.3899 8.60015Z" fill="white"/>
<path d="M7.60962 8.60062C8.30262 8.14099 8.8522 7.53536 9.23486 6.87257C9.86507 5.78111 10.1357 4.37523 9.75199 2.94372C9.70171 2.7562 9.50903 2.64494 9.32144 2.69516C8.89244 2.81005 8.48044 2.98054 8.09616 3.19975C8.37506 3.90583 8.51669 4.65006 8.51669 5.41518C8.51672 6.92638 7.96404 8.02818 7.60962 8.60062Z" fill="white"/>
<path d="M6.24855 1.63619C6.18262 1.57026 6.093 1.5332 5.99976 1.5332C5.90653 1.5332 5.81711 1.57026 5.75118 1.63619C4.83035 2.55702 4.18604 3.8863 4.18604 5.41504C4.18604 6.94448 4.83108 8.2738 5.75118 9.19389C5.81711 9.25982 5.90674 9.29688 5.99997 9.29688C6.09321 9.29688 6.18262 9.25982 6.24855 9.19389C7.16842 8.27404 7.8137 6.94483 7.8137 5.41504C7.81372 3.8856 7.16891 2.55651 6.24855 1.63619Z" fill="white"/>
</svg>
