<svg width="14" height="14" viewBox="0 0 14 14" fill="none" xmlns="http://www.w3.org/2000/svg">
<path fill-rule="evenodd" clip-rule="evenodd" d="M3.7296 2.83301H6.94741C8.29298 2.83301 9.23244 3.76025 9.23244 5.08907V8.91028C9.23244 10.2391 8.29298 11.1663 6.94741 11.1663H3.7296C2.38403 11.1663 1.44458 10.2391 1.44458 8.91028V5.08907C1.44458 3.76025 2.38403 2.83301 3.7296 2.83301ZM11.4212 4.15456C11.6651 4.03048 11.9512 4.04345 12.184 4.19009C12.4168 4.33617 12.5557 4.58998 12.5557 4.86748V9.132C12.5557 9.41006 12.4168 9.6633 12.184 9.80938C12.0568 9.88891 11.9146 9.92952 11.7712 9.92952C11.6518 9.92952 11.5323 9.90132 11.4207 9.84435L10.5979 9.42924C10.2934 9.2747 10.1045 8.96449 10.1045 8.61987V5.37904C10.1045 5.03386 10.2934 4.72365 10.5979 4.57024L11.4212 4.15456Z" fill="white"/>
</svg>
